# xmcd CD database file
#
# Track frame offsets:
#	150
#	16629
#	34201
#	52793
#	82840
#	100966
#	119540
#	135732
#	154528
#	176363
#
# Disc length: 2633 seconds
#
# Revision: 1
# Processed by: cddbd v1.5.2PL0 Copyright (c) Steve Scherf et al.
# Submitted via: CDex 1.70beta2
#
DISCID=6b0a470a
DTITLE=Chris Juergensen - Strange Phenomena
DYEAR=2008
DGENRE=Blues
TTITLE0=The Spirit
TTITLE1=Long Time Wondering
TTITLE2=Nothing's Got Me
TTITLE3=Living The Lie
TTITLE4=Blood On The Streets
TTITLE5=House On The Hill (live)
TTITLE6=Boot Hill (live)
TTITLE7=Sweet Melissa (live)
TTITLE8=Tell Me A Story (live)
TTITLE9=Born To Love You (live)
EXTD=YEAR: 2008
EXTT0=
EXTT1=
EXTT2=
EXTT3=
EXTT4=
EXTT5=
EXTT6=
EXTT7=
EXTT8=
EXTT9=
PLAYORDER=
